<svg xmlns="http://www.w3.org/2000/svg" version="1.1" xmlns:xlink="http://www.w3.org/1999/xlink" xmlns:svgjs="http://svgjs.dev/svgjs" width="100%" height="100%" viewBox="0 0 1000 600"><rect width="1000" height="600" x="0" y="0" fill="#5542db"/><g><rect width="333.3333333333333" height="333.3333333333333" y="228.15986630529113" fill="#080a52" transform="matrix(0.6069799362690809,0,0,0.606979936269081,0,60.34823126061889)" x="205.9376678466797"/><path d="M403.94352824217833 469.826528684189L341.1904564643995 469.826528684189Q338.1287238865865 469.826528684189 336.4609508563956 467.58623655408184Q334.7931778262047 465.3708365587537 334.7931778262047 462.4833489243934L334.7931778262047 462.4833489243934Q334.7931778262047 459.1478028640117 336.2369216433849 456.78305006000966Q337.680665460565 454.4182972560077 341.01621152094674 454.4182972560077L341.01621152094674 454.4182972560077L362.37366316130147 454.4182972560077L362.37366316130147 335.2347559343081L341.01621152094674 335.2347559343081Q337.680665460565 335.2347559343081 336.2369216433849 332.8202188607482Q334.7931778262047 330.43057392196727 334.7931778262047 327.1945964007014L334.7931778262047 327.1945964007014Q334.7931778262047 324.30710876634106 336.4609508563956 322.06681663623397Q338.1287238865865 319.8265245061268 341.1904564643995 319.8265245061268L341.1904564643995 319.8265245061268L403.94352824217833 319.8265245061268Q407.00526081999135 319.8265245061268 408.6979259849612 322.06681663623397Q410.41548328471004 324.30710876634106 410.41548328471004 327.1945964007014L410.41548328471004 327.1945964007014Q410.41548328471004 330.43057392196727 408.92195519797195 332.8202188607482Q407.4284271112339 335.2347559343081 404.1177731856311 335.2347559343081L404.1177731856311 335.2347559343081L382.8349979496133 335.2347559343081L382.8349979496133 454.4182972560077L404.1177731856311 454.4182972560077Q407.4284271112339 454.4182972560077 408.92195519797195 456.78305006000966Q410.41548328471004 459.1478028640117 410.41548328471004 462.4833489243934L410.41548328471004 462.4833489243934Q410.41548328471004 465.3708365587537 408.6979259849612 467.58623655408184Q407.00526081999135 469.826528684189 403.94352824217833 469.826528684189L403.94352824217833 469.826528684189Z " fill="#ffffff" transform="matrix(0.6069799362690809,0,0,0.606979936269081,0,60.34823126061889)"/><path d="M674.0043560406598 432.43292359198455L627.3594810655162 432.43292359198455Q625.0836700294421 432.43292359198455 623.844000603288 430.7676960046133Q622.6043311771339 429.1209709459906 622.6043311771339 426.97467761115655L622.6043311771339 426.97467761115655Q622.6043311771339 424.4953387588483 623.6774778445509 422.7375985277342Q624.750624511968 420.9798582966201 627.2299633642763 420.9798582966201L627.2299633642763 420.9798582966201L643.1051330305488 420.9798582966201L643.1051330305488 332.3897506484696L627.2299633642763 332.3897506484696Q624.750624511968 332.3897506484696 623.6774778445509 330.59500535985836Q622.6043311771339 328.81876259999575 622.6043311771339 326.4134338626817L622.6043311771339 326.4134338626817Q622.6043311771339 324.26714052784763 623.844000603288 322.60191294047644Q625.0836700294421 320.93668535310513 627.3594810655162 320.93668535310513L627.3594810655162 320.93668535310513L674.0043560406598 320.93668535310513Q676.2801670767337 320.93668535310513 677.5383390316365 322.60191294047644Q678.8150135152878 324.26714052784763 678.8150135152878 326.4134338626817L678.8150135152878 326.4134338626817Q678.8150135152878 328.81876259999575 677.7048617903736 330.59500535985836Q676.5947100654595 332.3897506484696 674.1338737418998 332.3897506484696L674.1338737418998 332.3897506484696L658.3142116618728 332.3897506484696L658.3142116618728 420.9798582966201L674.1338737418998 420.9798582966201Q676.5947100654595 420.9798582966201 677.7048617903736 422.7375985277342Q678.8150135152878 424.4953387588483 678.8150135152878 426.97467761115655L678.8150135152878 426.97467761115655Q678.8150135152878 429.1209709459906 677.5383390316365 430.7676960046133Q676.2801670767337 432.43292359198455 674.0043560406598 432.43292359198455L674.0043560406598 432.43292359198455ZM728.1242526302254 432.43292359198455L693.7095491578862 432.43292359198455Q690.971174903098 432.43292359198455 689.675997890698 430.8787111771047Q688.3623183495497 429.3059962334763 688.3623183495497 426.84515990991656L688.3623183495497 426.84515990991656Q688.3623183495497 424.4398311726025 689.5649827182067 422.70059347023704Q690.7861496156122 420.9798582966201 693.3209960541662 420.9798582966201L693.3209960541662 420.9798582966201L702.9423110034223 420.9798582966201L702.9423110034223 368.74721963940857L693.5800314566462 371.0230306754826Q693.1914783529262 371.15254837672256 692.6549050192177 371.15254837672256L692.6549050192177 371.15254837672256Q690.7121395006179 371.15254837672256 689.0284093844982 369.5613309043456Q687.3261767396298 367.9701134319686 687.3261767396298 365.95333779837455L687.3261767396298 365.95333779837455Q687.3261767396298 361.66075112870647 691.0451850180923 360.4950918175466L691.0451850180923 360.4950918175466L709.1776631916903 355.27737871045Q709.5107087091644 355.27737871045 709.5477137666617 355.2218711242043Q709.5847188241587 355.14786100921003 709.8437542266388 355.14786100921003L709.8437542266388 355.14786100921003L710.2323073303587 355.14786100921003Q711.6014944577528 355.14786100921003 712.5636259526784 355.96197227414706Q713.5442599763526 356.77608353908414 713.5442599763526 358.21928078147255L713.5442599763526 358.21928078147255L714.9134471037468 370.50495987052267Q717.5778112435407 366.08285549961454 722.4624788331631 362.6043800948835Q727.3286438940369 359.1259046901525 733.6750112547962 357.14613411405554Q740.0213786155556 355.14786100921003 747.052339540012 355.14786100921003L747.052339540012 355.14786100921003Q756.932689891748 355.14786100921003 763.6676103562273 359.73648813885524Q770.4025308207066 364.32511526850044 773.1224025467462 371.6706191816825L773.1224025467462 371.6706191816825Q777.6740246188944 365.1022214759404 785.6856195670249 360.1250412425752Q793.6787119864069 355.14786100921003 804.6692140630572 355.14786100921003L804.6692140630572 355.14786100921003Q812.7363165974333 355.14786100921003 819.0271763719469 358.40430606895825Q825.299533617712 361.66075112870647 828.907526723683 367.61856538574585Q832.5155198296542 373.5578771140366 832.5155198296542 381.69898976340716L832.5155198296542 381.69898976340716L832.5155198296542 420.9798582966201L842.0073170776701 420.9798582966201Q844.4866559299786 420.9798582966201 845.5598025973956 422.7375985277342Q846.6329492648125 424.4953387588483 846.6329492648125 426.97467761115655L846.6329492648125 426.97467761115655Q846.6329492648125 429.1209709459906 845.3932798386585 430.7676960046133Q844.1536104125042 432.43292359198455 841.8777993764303 432.43292359198455L841.8777993764303 432.43292359198455L810.1459625726337 432.43292359198455Q807.4075883178454 432.43292359198455 806.1124113054456 430.8787111771047Q804.798731764297 429.3059962334763 804.798731764297 426.84515990991656L804.798731764297 426.84515990991656Q804.798731764297 424.4398311726025 806.001396132954 422.70059347023704Q807.2225630303598 420.9798582966201 809.7574094689138 420.9798582966201L809.7574094689138 420.9798582966201L819.3787244181698 420.9798582966201L819.3787244181698 382.864649074567Q819.3787244181698 375.05658194267073 815.4746908522217 370.63447757176266Q811.5706572862736 366.21237320085453 803.6330724531373 366.21237320085453L803.6330724531373 366.21237320085453Q796.6021115286809 366.21237320085453 791.1068604903556 368.7842246969057Q785.6116094520306 371.35607619295683 781.5780581848425 375.5746527476307Q777.5445069176543 379.81173183105307 774.8801427778604 384.75190700692116L774.8801427778604 384.75190700692116L774.8801427778604 420.9798582966201L785.6116094520306 420.9798582966201Q788.0909483043389 420.9798582966201 789.2011000292531 422.7375985277342Q790.2927492254186 424.4953387588483 790.2927492254186 426.97467761115655L790.2927492254186 426.97467761115655Q790.2927492254186 429.1209709459906 789.034577270516 430.7676960046133Q787.7579027868647 432.43292359198455 785.4820917507906 432.43292359198455L785.4820917507906 432.43292359198455L751.1413983934457 432.43292359198455Q748.4030241386575 432.43292359198455 747.1078471262575 430.8787111771047Q745.8126701138577 429.3059962334763 745.8126701138577 426.84515990991656L745.8126701138577 426.84515990991656Q745.8126701138577 424.4398311726025 747.0153344825147 422.70059347023704Q748.2179988511717 420.9798582966201 750.7528452897258 420.9798582966201L750.7528452897258 420.9798582966201L761.6878397801303 420.9798582966201L761.6878397801303 382.864649074567Q761.6878397801303 375.05658194267073 757.7838062141822 370.63447757176266Q753.879772648234 366.21237320085453 745.9421878150978 366.21237320085453L745.9421878150978 366.21237320085453Q734.9516857384475 366.21237320085453 727.4581615952769 371.393081250454Q719.9831399808548 376.55528677130485 716.2086241161467 384.10431850072115L716.2086241161467 384.10431850072115L716.2086241161467 420.9798582966201L728.2537703314653 420.9798582966201Q730.714606655025 420.9798582966201 731.7877533224422 422.7375985277342Q732.8608999898591 424.4953387588483 732.8608999898591 426.97467761115655L732.8608999898591 426.97467761115655Q732.8608999898591 429.1209709459906 731.6212305637049 430.7676960046133Q730.4000636662994 432.43292359198455 728.1242526302254 432.43292359198455L728.1242526302254 432.43292359198455ZM891.520084008842 469.8265341928434L857.4384260539772 469.8265341928434Q854.7000517991888 469.8265341928434 853.404874786789 468.27232177796355Q852.0911952456405 466.71810936308367 852.0911952456405 464.2387705107754L852.0911952456405 464.2387705107754Q852.0911952456405 461.83344177346135 853.2938596142975 460.11270659984444Q854.4965239829545 458.3919714262275 857.0313704215085 458.3919714262275L857.0313704215085 458.3919714262275L865.1724830708791 458.3919714262275L865.1724830708791 368.74721963940857L855.8657111103488 371.0230306754826Q855.4771580066287 371.15254837672256 854.8850770866744 371.15254837672256L854.8850770866744 371.15254837672256Q852.9423115680748 371.15254837672256 851.2585814519549 369.5613309043456Q849.5563488070865 367.9701134319686 849.5563488070865 365.95333779837455L849.5563488070865 365.95333779837455Q849.5563488070865 361.66075112870647 853.3308646717948 360.4950918175466L853.3308646717948 360.4950918175466L871.407835259147 355.27737871045Q871.7408807766213 355.27737871045 871.7778858341184 355.2218711242043Q871.8148908916156 355.14786100921003 872.0739262940955 355.14786100921003L872.0739262940955 355.14786100921003L872.5179869840612 355.14786100921003Q873.8871741114552 355.14786100921003 874.8678081351294 355.96197227414706Q875.829939630055 356.77608353908414 875.829939630055 358.21928078147255L875.829939630055 358.21928078147255L877.1436191712036 370.50495987052267Q880.2705465297119 363.80704446354054 887.5235377991511 359.47745273637526Q894.7765290685903 355.14786100921003 904.323833902852 355.14786100921003L904.323833902852 355.14786100921003Q915.7768991982165 355.14786100921003 923.8810067900898 360.2360564150666Q931.9666118532149 365.30574929217465 936.2777010516314 374.18696309148794Q940.5702877212995 383.0681768908013 940.5702877212995 394.57674977241146L940.5702877212995 394.57674977241146Q940.5702877212995 406.159332769016 935.9446555341573 415.05904909707783Q931.3190233470149 423.9772679538883 922.9003727664159 429.0099557734992Q914.4817221858167 434.06114612185866 903.0286568904522 434.06114612185866L903.0286568904522 434.06114612185866Q894.9615543560759 434.06114612185866 889.0407451565337 431.6558173845446Q883.1199359569915 429.2504886472306 878.5128062985976 425.34645508128244L878.5128062985976 425.34645508128244L878.5128062985976 458.3919714262275L891.649601710082 458.3919714262275Q894.1104380336418 458.3919714262275 895.2205897585558 460.1682141860901Q896.33074148347 461.96295947470134 896.33074148347 464.4422983270096L896.33074148347 464.4422983270096Q896.33074148347 466.58859166184374 895.0540669998187 468.2168141917178Q893.7958950449159 469.8265341928434 891.520084008842 469.8265341928434L891.520084008842 469.8265341928434ZM903.0286568904522 422.99663393021416L903.0286568904522 422.99663393021416Q910.6331962061143 422.99663393021416 915.8139042557137 419.092600364266Q920.9761097765646 415.1885667983178 923.5849663301129 408.7311842650671Q926.1938228836613 402.2552992030678 926.1938228836613 394.57674977241146L926.1938228836613 394.57674977241146Q926.1938228836613 386.84269275550946 923.6404739163585 380.38531022225874Q921.1056274778044 373.9464302177566 916.0359346006966 370.07940170930556Q910.9662417235885 366.21237320085453 903.4172099941721 366.21237320085453L903.4172099941721 366.21237320085453Q894.7765290685903 366.21237320085453 888.596684466568 369.4318132031056Q882.4168398645458 372.6512532053567 878.5128062985976 377.794956197459L878.5128062985976 377.794956197459L878.5128062985976 414.02290748715797Q882.6758752670258 418.18597645558606 888.7447046965566 420.5913051929001Q894.8320366548359 422.99663393021416 903.0286568904522 422.99663393021416ZM976.7242288960043 434.24617140934436L976.7242288960043 434.24617140934436Q970.1003236040164 434.24617140934436 964.8271029106742 431.5262996833046Q959.5538822173318 428.78792542851636 956.500964973818 423.88475531014547Q953.448047730304 418.963082663026 953.448047730304 412.46869507227814L953.448047730304 412.46869507227814Q953.448047730304 405.43773414782174 956.537970031315 400.84910701817654Q959.627892332326 396.2604798885313 964.8641079681712 393.50360310499445Q970.1003236040164 390.72822379270906 976.6687213097586 389.266524021572Q983.2371190155008 387.80482425043505 990.2495774112086 387.10172815798944Q997.2805383356648 386.3801295367952 1003.7934284551612 385.78804861684097L1003.7934284551612 385.78804861684097L1003.7934284551612 375.260109758905Q1003.7934284551612 371.8001368829225 1001.7396477640701 369.8573713643227Q999.6858670729788 367.89610331697435 996.5589397144707 367.06348952328875Q993.450514884711 366.21237320085453 990.0645521237228 366.21237320085453L990.0645521237228 366.21237320085453Q983.9402151079463 366.21237320085453 979.9806739557524 367.06348952328875Q976.0211328035585 367.89610331697435 972.7276826863132 369.65384354808845Q969.4342325690678 371.41158377920254 965.2711636006399 374.0759479189966L965.2711636006399 374.0759479189966Q964.0499967032341 374.79754654019075 962.9953525645657 374.79754654019075L962.9953525645657 374.79754654019075Q960.793551643486 374.79754654019075 959.0358114123718 372.72526332035096Q957.2780711812578 370.63447757176266 957.2780711812578 368.3586665356886L957.2780711812578 368.3586665356886Q957.2780711812578 364.45463296974043 960.4975111835089 361.8827814736893Q963.71695118576 359.3109299776381 968.657126361628 357.84923020650115Q973.597301537496 356.38753043536417 978.8705222308382 355.77694698666136Q984.1437429241806 355.14786100921003 988.1772941913688 355.14786100921003L988.1772941913688 355.14786100921003Q999.2418063830131 355.14786100921003 1005.4401535137839 358.1822757239754Q1011.6570031733035 361.1981879099922 1014.1918496118573 367.84059573072864Q1016.7266960504113 374.48300355146506 1016.7266960504113 385.39949551312105L1016.7266960504113 385.39949551312105L1016.7266960504113 418.18597645558606Q1016.7266960504113 420.20275208918014 1017.4112896141083 421.5349341590771Q1018.0958831778054 422.8671162289741 1019.5945880064395 422.8671162289741L1019.5945880064395 422.8671162289741Q1021.5373535250393 422.8671162289741 1023.8871746761077 421.10937599786Q1026.236995827176 419.3516357667459 1028.4017916907587 417.5938955356319Q1030.5850900830897 415.85465783326634 1032.157805026718 415.85465783326634L1032.157805026718 415.85465783326634Q1033.6380073266037 415.85465783326634 1035.210722270232 417.760418294369Q1036.7649346851122 419.6846812842202 1036.7649346851122 421.49792910158L1036.7649346851122 421.49792910158Q1036.7649346851122 424.1067856551283 1034.8221691665121 426.3825966912023Q1032.8609011191638 428.65840772727637 1029.9004965193926 430.3791429008933Q1026.9400919196219 432.0998780745103 1023.8501696186105 433.08051209818444Q1020.7602473175995 434.06114612185866 1018.5584463965198 434.06114612185866L1018.5584463965198 434.06114612185866Q1007.8269797223494 434.06114612185866 1005.5511686862754 423.51470473517406L1005.5511686862754 423.51470473517406Q1000.796018797893 429.04696083099634 993.1174693672368 431.6558173845446Q985.4389199365804 434.24617140934436 976.7242288960043 434.24617140934436ZM981.2758509681522 422.99663393021416L981.2758509681522 422.99663393021416Q988.1032840763745 422.99663393021416 993.7095502871911 420.5357976066544Q999.2973139692589 418.0564587543461 1003.7934284551612 414.48547070587216L1003.7934284551612 414.48547070587216L1003.7934284551612 395.5573837960857Q998.6497254630591 396.1309621872913 992.377368217294 396.76004816474267Q986.0865084427804 397.3706316134455 980.4432371744666 398.8693364420796Q974.7814633774045 400.3680412707137 971.099460156439 403.49496862922194Q967.4174569354738 406.6033934589816 967.4174569354738 412.08014196855817L967.4174569354738 412.08014196855817Q967.4174569354738 417.5938955356319 971.5250183176562 420.295264732923Q975.6140771710901 422.99663393021416 981.2758509681522 422.99663393021416ZM1083.5393273614955 434.06114612185866L1083.5393273614955 434.06114612185866Q1071.050120456211 434.06114612185866 1061.4843130932009 429.2504886472306Q1051.9185057301902 424.4398311726025 1046.515767335608 415.35508955705495Q1041.1315314697745 406.2888504702559 1041.1315314697745 393.6701258637316L1041.1315314697745 393.6701258637316Q1041.1315314697745 381.2364265446929 1047.1078482555622 372.6512532053567Q1053.1026675700987 364.0660798660205 1062.9830179218352 359.60697043761525Q1072.8633682735708 355.14786100921003 1084.5754689714154 355.14786100921003L1084.5754689714154 355.14786100921003Q1089.5156441472836 355.14786100921003 1094.4743218519002 356.03598238914134Q1099.414497027768 356.90560124032413 1103.503555881202 359.1259046901525Q1107.6111172633846 361.3277056112322 1110.071953586944 365.2687442346775Q1112.5512924392524 369.20978285812276 1112.5512924392524 375.3156173451507L1112.5512924392524 375.3156173451507Q1112.5512924392524 379.1641433248531 1111.052587610618 381.79150240715Q1109.5538827819842 384.4188614894469 1106.24193013599 384.4188614894469L1106.24193013599 384.4188614894469Q1102.9854850762422 384.4188614894469 1101.394267603865 381.7359948209043Q1099.803050131488 379.0346256236132 1099.025943924048 375.1490945864136Q1098.23033518786 371.28206607796255 1097.397721394174 367.84059573072864L1097.397721394174 367.84059573072864Q1091.1438666771578 366.21237320085453 1085.0380321901298 366.21237320085453L1085.0380321901298 366.21237320085453Q1076.6378841382793 366.21237320085453 1069.976973788794 369.5058233180999Q1063.3160634393093 372.7807709065967 1059.4305324021097 378.92361045112176Q1055.5635038936584 385.08495252439536 1055.5635038936584 393.6701258637316L1055.5635038936584 393.6701258637316Q1055.5635038936584 402.9583952955134 1059.412029873361 409.0457272537928Q1063.2420533243148 415.1330592120721 1069.4589029838344 418.13046886934035Q1075.6572501146052 421.10937599786 1082.7622211540556 421.10937599786L1082.7622211540556 421.10937599786Q1088.3499848361234 421.10937599786 1093.919245989443 419.0370927780203Q1099.4700046140138 416.9463070294319 1104.0956368011562 412.78323806100383L1104.0956368011562 412.78323806100383Q1106.1124124347502 411.099507944884 1108.18469565459 411.099507944884L1108.18469565459 411.099507944884Q1110.8490597943842 411.099507944884 1112.6438050829952 412.431690014781Q1114.4385503716067 413.763872084678 1114.4385503716067 416.169200821992L1114.4385503716067 416.169200821992Q1114.4385503716067 420.3322697904201 1111.2746179556011 423.64422243641405Q1108.1291880683443 426.97467761115655 1103.2445204787218 429.3059962334763Q1098.3598528890998 431.6558173845446 1093.1051347245061 432.8584817532016Q1087.8319140311637 434.06114612185866 1083.5393273614955 434.06114612185866ZM1154.3114998247738 434.19066382309865L1154.3114998247738 434.19066382309865Q1149.2418069476657 434.19066382309865 1144.875210163003 431.7113249707903Q1140.5271159070894 429.2504886472306 1137.881254296044 425.1799323225453Q1135.253895213747 421.10937599786 1135.253895213747 416.298718523232L1135.253895213747 416.298718523232L1135.253895213747 370.2459244680427L1125.4845600345025 370.2459244680427Q1122.7646883084626 370.2459244680427 1121.4510087673143 368.69171205316286Q1120.1558317549143 367.11899710953446 1120.1558317549143 364.6581607859747L1120.1558317549143 364.6581607859747Q1120.1558317549143 362.2528320486607 1121.3584961235715 360.4950918175466Q1122.5611604922283 358.7373515864325 1125.0960069307826 358.7373515864325L1125.0960069307826 358.7373515864325L1135.253895213747 358.7373515864325Q1135.253895213747 355.7399419291642 1135.4204179724843 351.44735525949613Q1135.5684382024729 347.15476858982805 1136.290036823667 342.9176895064056Q1137.011635444861 338.6991129517318 1138.565847859741 335.86822605320066Q1140.1200602746208 333.03733915466955 1142.9324446444034 333.03733915466955L1142.9324446444034 333.03733915466955Q1145.8558441866771 333.03733915466955 1148.1316552227513 334.66556168454366L1148.1316552227513 334.66556168454366L1148.1316552227513 335.9607386969435Q1148.1316552227513 336.81185501937773 1148.187162808997 337.8479966292976Q1148.2611729239916 338.9026407679661 1148.2611729239916 339.80926467664597L1148.2611729239916 339.80926467664597L1148.2611729239916 358.7373515864325L1165.3020019014239 358.7373515864325Q1167.7813407537324 358.7373515864325 1168.8729899498976 360.5135943462952Q1169.983141674812 362.3083396349064 1169.983141674812 364.7876784872147L1169.983141674812 364.7876784872147Q1169.983141674812 366.93397182204876 1168.724969719909 368.58069688067144Q1167.4482952362578 370.2459244680427 1165.172484200184 370.2459244680427L1165.172484200184 370.2459244680427L1148.2611729239916 370.2459244680427L1148.2611729239916 414.28194288963795Q1148.2611729239916 419.4256458817402 1150.592491546311 421.57193921657426Q1152.9423126973797 423.71823255140833 1156.5133007458535 423.71823255140833L1156.5133007458535 423.71823255140833Q1159.6402281043615 423.71823255140833 1161.4904809792188 422.64508588399127Q1163.3592363828243 421.57193921657426 1164.5804032802298 420.20275208918014Q1165.8200727063836 418.833564961786 1167.0597421325378 417.760418294369Q1168.299411558692 416.68727162695194 1170.1126593760519 416.68727162695194L1170.1126593760519 416.68727162695194Q1172.20344512464 416.68727162695194 1173.49862213704 418.13046886934035Q1174.79379914944 419.55516358298024 1174.79379914944 421.62744680282L1174.79379914944 421.62744680282Q1174.79379914944 425.47597278252243 1171.518851560943 428.30685968105354Q1168.2254014436976 431.13774657958464 1163.488754084064 432.6549539369674Q1158.733604195682 434.19066382309865 1154.3114998247738 434.19066382309865ZM1223.7884952756517 434.19066382309865L1223.7884952756517 434.19066382309865Q1219.0888529735153 434.19066382309865 1213.7046171076813 433.1730247419273Q1208.301878713099 432.17388818950457 1203.6207389397114 430.24962519965334Q1198.9395991663232 428.3438647385507 1196.4602603140147 425.6054904837624L1196.4602603140147 425.6054904837624Q1196.4602603140147 429.9535847396762 1194.9245504278833 431.1932541658304Q1193.4073430705007 432.43292359198455 1191.1870396206723 432.43292359198455L1191.1870396206723 432.43292359198455Q1188.7262032971125 432.43292359198455 1187.0609757097413 431.32277186707034Q1185.3957481223702 430.2126201421562 1185.3957481223702 427.6222661173565L1185.3957481223702 427.6222661173565L1185.3957481223702 405.641261964056Q1185.5252658236104 403.62448633046193 1186.9869655947473 402.5698421917935Q1188.467167894633 401.5337005818736 1190.3544258269867 401.5337005818736L1190.3544258269867 401.5337005818736Q1193.2038152542664 401.5337005818736 1194.3509720366778 402.86588265177056Q1195.4796262903405 404.19806472166755 1196.0717072102948 406.7329111602216L1196.0717072102948 406.7329111602216Q1198.0884828438889 415.5771199020378 1205.3414741133283 420.01772680169444Q1212.5944653827673 424.4398311726025 1223.0668966544577 424.4398311726025L1223.0668966544577 424.4398311726025Q1229.4317665439653 424.4398311726025 1233.9278810298679 422.0530049640371Q1238.42399551577 419.6846812842202 1238.42399551577 414.15242518839796L1238.42399551577 414.15242518839796Q1238.42399551577 408.6201690925757 1235.8521440197192 406.12232771151884Q1233.2802925236679 403.62448633046193 1226.5823771166856 401.60771069686785L1226.5823771166856 401.60771069686785L1208.875457104305 396.0754546010456Q1203.3617035372313 394.3177143699315 1198.5695485913516 391.9123856326175Q1193.7958961742206 389.5070568953035 1190.872496631947 385.78804861684097Q1187.9305945609244 382.0875428671271 1187.9305945609244 376.42576907006486L1187.9305945609244 376.42576907006486Q1187.9305945609244 370.1164067668027 1190.3729283557354 365.9903428558717Q1192.8152621505465 361.86427894494074 1196.885818475232 359.47745273637526Q1200.9563747999173 357.1091290565584 1205.9520575620309 356.1284950328842Q1210.9662428528932 355.14786100921003 1216.1099458449958 355.14786100921003L1216.1099458449958 355.14786100921003Q1220.5875578021491 355.14786100921003 1225.0836722880517 356.38753043536417Q1229.5612842452056 357.6271998615183 1233.113769764931 359.84750331134666Q1236.666255284656 362.04930423242644 1238.2204676995357 364.9727037747004L1238.2204676995357 364.9727037747004L1238.2204676995357 359.4404476788781Q1238.2204676995357 357.42367204528404 1239.645162413176 356.22100767662704Q1241.088359655564 355.01834330797004 1243.1051352891582 355.01834330797004L1243.1051352891582 355.01834330797004Q1248.8224166724663 355.01834330797004 1248.8224166724663 360.10653871382664L1248.8224166724663 360.10653871382664L1248.8224166724663 378.9051079223732Q1248.5633812699862 381.10690884345297 1247.0276713838548 382.25406562586426Q1245.5104640264722 383.382719879527 1243.234652990398 383.382719879527L1243.234652990398 383.382719879527Q1241.088359655564 383.382719879527 1240.36676103437 382.0875428671271Q1239.645162413176 380.7923658547273 1238.997573906976 378.38703711741323L1238.997573906976 378.38703711741323Q1237.5728791933361 373.7614049302709 1233.8538709148734 370.63447757176266Q1230.1533651651598 367.5075502132544 1225.3982152767771 365.8978302121289Q1220.6615679171437 364.26960768225473 1215.9804281437555 364.26960768225473L1215.9804281437555 364.26960768225473Q1209.985608829219 364.26960768225473 1205.5079968720652 366.56392124707736Q1201.0118823861626 368.87673734064856 1201.0118823861626 373.6873948152766L1201.0118823861626 373.6873948152766Q1201.0118823861626 377.8504637837047 1203.6762465259567 380.1077722910302Q1206.3406106657508 382.3465782696071 1212.3354299802872 383.84528309824117L1212.3354299802872 383.84528309824117L1228.9877058539996 389.30352907906916Q1234.834504938548 391.26479712641753 1240.070720574393 393.76263850747443Q1245.3069362102378 396.2604798885313 1248.6003863274836 400.5530665581994Q1251.8753339159803 404.84565322786756 1251.8753339159803 412.20965966979816L1251.8753339159803 412.20965966979816Q1251.8753339159803 423.0706440452084 1244.529830002798 428.62140266977923Q1237.1843260896162 434.19066382309865 1223.7884952756517 434.19066382309865ZM1281.4793799136914 339.6057368604117L1281.4793799136914 339.6057368604117Q1277.3718185315088 339.6057368604117 1274.485424046732 336.7193423756349Q1271.5990295619554 333.8144453621095 1271.5990295619554 329.7253865086756L1271.5990295619554 329.7253865086756Q1271.5990295619554 325.6178251264932 1274.485424046732 322.7314306417164Q1277.3718185315088 319.826533628191 1281.4793799136914 319.826533628191L1281.4793799136914 319.826533628191Q1285.568438767125 319.826533628191 1288.4363307231533 322.7314306417164Q1291.3042226791817 325.6178251264932 1291.3042226791817 329.7253865086756L1291.3042226791817 329.7253865086756Q1291.3042226791817 333.8144453621095 1288.4363307231533 336.7193423756349Q1285.568438767125 339.6057368604117 1281.4793799136914 339.6057368604117ZM1298.5202088911237 432.43292359198455L1266.7698695585786 432.43292359198455Q1261.4411412789905 432.43292359198455 1261.4411412789905 427.03018519740226L1261.4411412789905 427.03018519740226Q1261.4411412789905 424.6248564600882 1262.6438056476477 422.90412128647125Q1263.8464700163045 421.1833861128543 1266.3813164548587 421.1833861128543L1266.3813164548587 421.1833861128543L1275.299535311669 421.1833861128543L1275.299535311669 368.4881842369286L1265.9927633511388 371.0230306754826Q1265.604210247419 371.15254837672256 1265.0861394424587 371.15254837672256L1265.0861394424587 371.15254837672256Q1263.1433739238591 371.15254837672256 1261.4411412789905 369.5613309043456Q1259.757411162871 367.9701134319686 1259.757411162871 365.95333779837455L1259.757411162871 365.95333779837455Q1259.757411162871 361.4572233124722 1263.4579169125846 360.4950918175466L1263.4579169125846 360.4950918175466L1284.2732617547254 355.27737871045Q1284.791332559685 355.14786100921003 1285.3094033646453 355.14786100921003L1285.3094033646453 355.14786100921003Q1288.6398585393877 355.14786100921003 1288.6398585393877 358.21928078147255L1288.6398585393877 358.21928078147255L1288.6398585393877 421.1833861128543L1298.649726592364 421.1833861128543Q1301.129065444672 421.1833861128543 1302.2207146408377 422.9411263439684Q1303.3308663657517 424.6988665750825 1303.3308663657517 427.15970289864225L1303.3308663657517 427.15970289864225Q1303.3308663657517 429.3059962334763 1302.0726944108492 430.8787111771047Q1300.796019927198 432.43292359198455 1298.5202088911237 432.43292359198455L1298.5202088911237 432.43292359198455ZM1340.1508985754049 434.19066382309865L1340.1508985754049 434.19066382309865Q1335.0812056982968 434.19066382309865 1330.7146089136345 431.7113249707903Q1326.366514657721 429.2504886472306 1323.7206530466751 425.1799323225453Q1321.0932939643785 421.10937599786 1321.0932939643785 416.298718523232L1321.0932939643785 416.298718523232L1321.0932939643785 370.2459244680427L1311.3424613138823 370.2459244680427Q1308.6040870590941 370.2459244680427 1307.308910046694 368.69171205316286Q1305.9952305055458 367.11899710953446 1305.9952305055458 364.6581607859747L1305.9952305055458 364.6581607859747Q1305.9952305055458 362.2528320486607 1307.197894874203 360.4950918175466Q1308.4005592428598 358.7373515864325 1310.9539082101624 358.7373515864325L1310.9539082101624 358.7373515864325L1321.0932939643785 358.7373515864325Q1321.0932939643785 355.7399419291642 1321.2598167231154 351.44735525949613Q1321.4263394818527 347.15476858982805 1322.1294355742984 342.9176895064056Q1322.8510341954925 338.6991129517318 1324.4052466103722 335.86822605320066Q1325.9779615540006 333.03733915466955 1328.771843395035 333.03733915466955L1328.771843395035 333.03733915466955Q1331.6952429373086 333.03733915466955 1333.9710539733828 334.66556168454366L1333.9710539733828 334.66556168454366L1333.9710539733828 335.9607386969435Q1333.9710539733828 336.81185501937773 1334.0450640883769 337.8479966292976Q1334.1005716746226 338.9026407679661 1334.1005716746226 339.80926467664597L1334.1005716746226 339.80926467664597L1334.1005716746226 358.7373515864325L1351.1414006520554 358.7373515864325Q1353.6207395043634 358.7373515864325 1354.7308912292779 360.5135943462952Q1355.822540425443 362.3083396349064 1355.822540425443 364.7876784872147L1355.822540425443 364.7876784872147Q1355.822540425443 366.93397182204876 1354.5643684705406 368.58069688067144Q1353.2876939868893 370.2459244680427 1351.011882950815 370.2459244680427L1351.011882950815 370.2459244680427L1334.1005716746226 370.2459244680427L1334.1005716746226 414.28194288963795Q1334.1005716746226 419.4256458817402 1336.4503928256913 421.57193921657426Q1338.7817114480108 423.71823255140833 1342.3712020252333 423.71823255140833L1342.3712020252333 423.71823255140833Q1345.479626854993 423.71823255140833 1347.3298797298498 422.64508588399127Q1349.1986351334554 421.57193921657426 1350.4198020308609 420.20275208918014Q1351.6594714570151 418.833564961786 1352.8991408831694 417.760418294369Q1354.1388103093236 416.68727162695194 1355.9520581266834 416.68727162695194L1355.9520581266834 416.68727162695194Q1358.0428438752715 416.68727162695194 1359.3380208876715 418.13046886934035Q1360.6331979000715 419.55516358298024 1360.6331979000715 421.62744680282L1360.6331979000715 421.62744680282Q1360.6331979000715 425.47597278252243 1357.3582503115745 428.30685968105354Q1354.064800194329 431.13774657958464 1349.3281528346952 432.6549539369674Q1344.573002946313 434.19066382309865 1340.1508985754049 434.19066382309865ZM1408.5177423013693 434.06114612185866L1408.5177423013693 434.06114612185866Q1396.620616316039 434.06114612185866 1387.3693519417543 429.2689911759792Q1378.1365900962178 424.4953387588483 1372.8633694028758 415.7436426607749Q1367.6086512382822 406.99194656270157 1367.6086512382822 395.0393129911257L1367.6086512382822 395.0393129911257Q1367.6086512382822 383.1976945920413 1372.3823036554127 374.2239681489851Q1377.155956072544 365.2317391771804 1385.9816622856115 360.1990513575695Q1394.7888659699306 355.14786100921003 1406.9635298864891 355.14786100921003L1406.9635298864891 355.14786100921003Q1413.531927592231 355.14786100921003 1419.6747671367566 357.4976821602783Q1425.8176066812816 359.84750331134666 1430.7392793284007 364.1400899810148Q1435.642449446772 368.4326766506829 1438.5288439315486 374.35348585022507Q1441.433740945074 380.25579252101875 1441.433740945074 387.41627114671513L1441.433740945074 387.41627114671513Q1441.433740945074 390.67271620646335 1440.06455381768 392.0789083913546Q1438.695366690286 393.4665980474973 1436.2900379529715 393.92916126621157Q1433.8847092156575 394.37322195617725 1430.7577818571494 394.70626747365145L1430.7577818571494 394.70626747365145L1381.4485427422119 396.0754546010456Q1381.4485427422119 404.5866178253876 1385.0935409056801 410.4149143811869Q1388.7385390691484 416.24321093698626 1394.992393786165 419.2036155367574Q1401.2277459744328 422.1640201365285 1409.035813106329 422.1640201365285L1409.035813106329 422.1640201365285Q1414.568069202151 422.1640201365285 1418.3980926531049 420.7208228941401Q1422.2466186328074 419.29612818050026 1425.2070232325786 416.98331208692906Q1428.1674278323499 414.67049599335786 1431.0168172596295 412.0061318535639L1431.0168172596295 412.0061318535639Q1433.0335928932236 410.32240173744407 1435.3094039292973 410.32240173744407L1435.3094039292973 410.32240173744407Q1437.9922705978402 410.32240173744407 1439.768513357703 411.91361920982104Q1441.563258646314 413.504836682198 1441.563258646314 416.169200821992L1441.563258646314 416.169200821992Q1441.563258646314 420.3322697904201 1438.1402908278287 423.64422243641405Q1434.7358255380918 426.97467761115655 1429.5181124309952 429.2689911759792Q1424.3189018526473 431.5818072695503 1418.657128055585 432.82147669570446Q1413.0138567872714 434.06114612185866 1408.5177423013693 434.06114612185866ZM1381.1895073397318 386.89820034175517L1381.1895073397318 386.89820034175517L1420.2853505854591 386.04708401932095Q1422.1171009315676 385.917566318081 1423.6158057602015 385.34398792687534Q1425.0960080600871 384.75190700692116 1425.0960080600871 383.253202178287L1425.0960080600871 383.253202178287Q1425.0960080600871 377.0178499900191 1422.4686489777905 373.28033918280806Q1419.8412898954934 369.52432584684846 1415.6782209270655 367.8776007882258Q1411.5151519586375 366.21237320085453 1406.9635298864891 366.21237320085453L1406.9635298864891 366.21237320085453Q1395.4364544761306 366.21237320085453 1388.7385390691484 371.83714194041966Q1382.0406236621661 377.4619106799848 1381.1895073397318 386.89820034175517Z " fill="#ffffff" transform="matrix(0.6069799362690809,0,0,0.606979936269081,0,60.34823126061889)"/></g></svg>